<?xml version="1.0" encoding="UTF-8"?>
<svg id="Layer_1" data-name="Layer 1" xmlns="http://www.w3.org/2000/svg" viewBox="118 175 764 650">
  <defs>
    <style>
      .cls-1 {
        fill: #265dfe;
      }
    </style>
  </defs>
  <polygon class="cls-1" points="492.61 542.75 346.66 542.75 346.61 542.75 346.65 542.82 318.1 695.74 301.39 695.74 271.57 660.3 328.84 342.73 375.84 302.78 558 302.78 588.41 339.71 584.15 363.7 361.89 363.7 434.48 472.28 564.87 472.28 564.87 472.28 711.09 472.28 711.18 472.28 881.98 472.28 809.39 363.7 730.42 363.7 742.84 293.6 644.45 174.96 312.4 174.96 193.96 276.34 118.02 705.47 216.38 825.04 550.2 825.04 665.99 727.28 674.5 679.26 506.15 679.26 484.45 695.74 464.17 695.74 472.43 651.34 533.07 651.34 679.45 651.34 865.85 651.34 793.26 542.75 492.61 542.75"/>
</svg>